<?xml version="1.0" encoding="UTF-8"?>
<svg id="Capa_2" data-name="Capa 2" xmlns="http://www.w3.org/2000/svg" viewBox="0 0 37.26 37.26">
  <defs>
    <style>
      .cls-1 {
        fill: #727176;
      }
    </style>
  </defs>
  <g id="Capa_1-2" data-name="Capa 1">
    <g>
      <polygon class="cls-1" points="15.44 19.11 9.49 23.57 9.49 14.67 15.44 19.11"/>
      <path class="cls-1" d="m28.08,25.8c-.01.09-.15.18-.31.2H10.01c-.15,0-.27-.02-.35-.05-.1-.04-.16-.1-.17-.16-.01-.06.04-.14.14-.2l7.13-5.35s.06-.04.1-.06c.03.02.06.04.09.06.64.51,1.36.74,2.17.65.53-.05,1.01-.26,1.49-.63.03-.02.09-.06.12-.09.03.02.07.05.12.09l7.07,5.29c.19.14.19.18.17.26Z"/>
      <polygon class="cls-1" points="22.14 19.12 28.09 14.65 28.09 23.56 22.14 19.12"/>
      <path class="cls-1" d="m28.1,12.43c.01.05-.03.12-.12.18-.4.31-.8.61-1.21.91l-7.5,5.61c-.36.28-.58.28-.94.01l-8.69-6.51c-.16-.12-.15-.16-.15-.2.01-.03.02-.12.19-.18.09-.02.18-.04.28-.04h10.38c2.4,0,4.82,0,7.22.01.15,0,.29.02.39.06.1.04.15.1.15.15Z"/>
      <path class="cls-1" d="m18.62,0C8.34,0,0,8.34,0,18.62s8.34,18.63,18.62,18.63,18.63-8.35,18.63-18.63S28.91,0,18.62,0Zm9.84,27.45c-.26.06-.51.11-.77.11H9.93c-.64,0-1.19-.16-1.64-.5-.48-.34-.72-.83-.72-1.42v-13c-.01-.72.31-1.27.93-1.62.43-.25.93-.36,1.52-.36h17.58c.59,0,1.09.14,1.56.42.56.34.84.86.84,1.52v8.14c-.01,1.54-.02,3.14.01,4.71.02,1.01-.54,1.73-1.56,2.01Z"/>
    </g>
  </g>
</svg>