<svg width="148" height="99" viewBox="0 0 148 99" fill="none" xmlns="http://www.w3.org/2000/svg">
<path d="M11.9062 42.3125L10.1719 47H0.234375L13.3594 14.1875H21.7969L34.9219 47H24.9844L23.3203 42.3125H11.9062ZM20.8359 35.2812L17.7422 26.5625L14.5078 35.2812H20.8359ZM50.3906 14.1875C55.75 14.1875 59.375 15.75 61.2656 18.875C62.7031 20.7031 63.4219 22.9219 63.4219 25.5312V26.0938C63.4219 31.5469 60.4531 35.1719 54.5156 36.9688C52.875 37.3438 51.0938 37.5312 49.1719 37.5312H44.3438V47H35.25V14.1875H50.3906ZM44.3438 21.875V29.75H48.6094C51.5469 29.75 53.2344 29.4062 53.6719 28.7188C54.1719 27.9375 54.4219 27.0938 54.4219 26.1875C54.4219 23.3125 52.5781 21.875 48.8906 21.875H44.3438ZM88.4062 14.1875V21.9688H73.9688V26.9375H87.1875V33.9688H73.9688V39.125H88.4062V47H64.9688V14.1875H88.4062ZM103.641 38.6094L98.25 47H87.9375L98.4844 30.5938L87.9375 14.1875H98.25L103.641 22.5781L109.031 14.1875H119.344L108.797 30.5938L119.344 47H109.031L103.641 38.6094Z" fill="#121212"/>
<mask id="path-2-outside-1_38_11" maskUnits="userSpaceOnUse" x="26" y="51" width="124" height="35" fill="black">
<rect fill="white" x="26" y="51" width="124" height="35"/>
<path d="M39.9062 56.6875L38.1719 52H28.2344L41.3594 84.8125H49.7969L62.9219 52H52.9844L51.3203 56.6875H39.9062ZM48.8359 63.7188L45.7422 72.4375L42.5078 63.7188H48.8359ZM78.3906 84.8125C83.75 84.8125 87.375 83.25 89.2656 80.125C90.7031 78.2969 91.4219 76.0781 91.4219 73.4688V72.9062C91.4219 67.4531 88.4531 63.8281 82.5156 62.0312C80.875 61.6562 79.0938 61.4688 77.1719 61.4688H72.3438V52H63.25V84.8125H78.3906ZM72.3438 77.125V69.25H76.6094C79.5469 69.25 81.2344 69.5938 81.6719 70.2812C82.1719 71.0625 82.4219 71.9062 82.4219 72.8125C82.4219 75.6875 80.5781 77.125 76.8906 77.125H72.3438ZM116.406 84.8125V77.0312H101.969V72.0625H115.188V65.0312H101.969V59.875H116.406V52H92.9688V84.8125H116.406ZM131.641 60.3906L126.25 52H115.938L126.484 68.4062L115.938 84.8125H126.25L131.641 76.4219L137.031 84.8125H147.344L136.797 68.4062L147.344 52H137.031L131.641 60.3906Z"/>
</mask>
<path d="M39.9062 56.6875V57.6875H39.21L38.9684 57.0345L39.9062 56.6875ZM38.1719 52V51H38.8681L39.1097 51.653L38.1719 52ZM28.2344 52L27.3059 52.3714L26.7573 51H28.2344V52ZM41.3594 84.8125V85.8125H40.6823L40.4309 85.1839L41.3594 84.8125ZM49.7969 84.8125L50.7254 85.1839L50.4739 85.8125H49.7969V84.8125ZM62.9219 52V51H64.3989L63.8504 52.3714L62.9219 52ZM52.9844 52L52.042 51.6655L52.2782 51H52.9844V52ZM51.3203 56.6875L52.2627 57.022L52.0265 57.6875H51.3203V56.6875ZM48.8359 63.7188V62.7188H50.2519L49.7784 64.0532L48.8359 63.7188ZM45.7422 72.4375L46.6846 72.7719L45.7631 75.369L44.8046 72.7853L45.7422 72.4375ZM42.5078 63.7188L41.5702 64.0666L41.0703 62.7188H42.5078V63.7188ZM38.9684 57.0345L37.234 52.347L39.1097 51.653L40.8441 56.3405L38.9684 57.0345ZM38.1719 53H28.2344V51H38.1719V53ZM29.1629 51.6286L42.2879 84.4411L40.4309 85.1839L27.3059 52.3714L29.1629 51.6286ZM41.3594 83.8125H49.7969V85.8125H41.3594V83.8125ZM48.8684 84.4411L61.9934 51.6286L63.8504 52.3714L50.7254 85.1839L48.8684 84.4411ZM62.9219 53H52.9844V51H62.9219V53ZM53.9268 52.3345L52.2627 57.022L50.3779 56.353L52.042 51.6655L53.9268 52.3345ZM51.3203 57.6875H39.9062V55.6875H51.3203V57.6875ZM49.7784 64.0532L46.6846 72.7719L44.7998 72.1031L47.8935 63.3843L49.7784 64.0532ZM44.8046 72.7853L41.5702 64.0666L43.4454 63.3709L46.6798 72.0897L44.8046 72.7853ZM42.5078 62.7188H48.8359V64.7188H42.5078V62.7188ZM89.2656 80.125L88.41 79.6074L88.4417 79.555L88.4795 79.5069L89.2656 80.125ZM82.5156 62.0312L82.7384 61.0564L82.7722 61.0641L82.8053 61.0741L82.5156 62.0312ZM72.3438 61.4688V62.4688H71.3438V61.4688H72.3438ZM72.3438 52V51H73.3438V52H72.3438ZM63.25 52H62.25V51H63.25V52ZM63.25 84.8125V85.8125H62.25V84.8125H63.25ZM72.3438 77.125V78.125H71.3438V77.125H72.3438ZM72.3438 69.25H71.3438V68.25H72.3438V69.25ZM81.6719 70.2812L80.8296 70.8203L80.8282 70.8181L81.6719 70.2812ZM78.3906 83.8125C83.5779 83.8125 86.7767 82.307 88.41 79.6074L90.1212 80.6426C87.9733 84.193 83.9221 85.8125 78.3906 85.8125V83.8125ZM88.4795 79.5069C89.7616 77.8764 90.4219 75.8828 90.4219 73.4688H92.4219C92.4219 76.2734 91.6446 78.7173 90.0517 80.7431L88.4795 79.5069ZM90.4219 73.4688V72.9062H92.4219V73.4688H90.4219ZM90.4219 72.9062C90.4219 70.371 89.7363 68.3365 88.4217 66.7313C87.0978 65.1147 85.0653 63.8477 82.226 62.9884L82.8053 61.0741C85.9034 62.0117 88.3241 63.4556 89.969 65.4641C91.623 67.4838 92.4219 69.9884 92.4219 72.9062H90.4219ZM82.2928 63.0061C80.7347 62.65 79.0291 62.4688 77.1719 62.4688V60.4688C79.1584 60.4688 81.0153 60.6625 82.7384 61.0564L82.2928 63.0061ZM77.1719 62.4688H72.3438V60.4688H77.1719V62.4688ZM71.3438 61.4688V52H73.3438V61.4688H71.3438ZM72.3438 53H63.25V51H72.3438V53ZM64.25 52V84.8125H62.25V52H64.25ZM63.25 83.8125H78.3906V85.8125H63.25V83.8125ZM71.3438 77.125V69.25H73.3438V77.125H71.3438ZM72.3438 68.25H76.6094V70.25H72.3438V68.25ZM76.6094 68.25C78.1053 68.25 79.3383 68.3366 80.2777 68.5279C80.7478 68.6237 81.1793 68.7525 81.546 68.9304C81.9076 69.1059 82.2716 69.3611 82.5155 69.7444L80.8282 70.8181C80.8534 70.8577 80.8424 70.812 80.6728 70.7297C80.5082 70.6499 80.2522 70.5638 79.8785 70.4877C79.1305 70.3353 78.0509 70.25 76.6094 70.25V68.25ZM82.5141 69.7422C83.1146 70.6804 83.4219 71.7105 83.4219 72.8125H81.4219C81.4219 72.102 81.2292 71.4446 80.8296 70.8203L82.5141 69.7422ZM83.4219 72.8125C83.4219 74.4798 82.8746 75.8838 81.6539 76.8355C80.4805 77.7503 78.8368 78.125 76.8906 78.125V76.125C78.6319 76.125 79.7538 75.7809 80.4242 75.2582C81.0473 74.7725 81.4219 74.0202 81.4219 72.8125H83.4219ZM76.8906 78.125H72.3438V76.125H76.8906V78.125ZM116.406 84.8125H117.406V85.8125H116.406V84.8125ZM116.406 77.0312V76.0312H117.406V77.0312H116.406ZM101.969 77.0312V78.0312H100.969V77.0312H101.969ZM101.969 72.0625H100.969V71.0625H101.969V72.0625ZM115.188 72.0625H116.188V73.0625H115.188V72.0625ZM115.188 65.0312V64.0312H116.188V65.0312H115.188ZM101.969 65.0312V66.0312H100.969V65.0312H101.969ZM101.969 59.875H100.969V58.875H101.969V59.875ZM116.406 59.875H117.406V60.875H116.406V59.875ZM116.406 52V51H117.406V52H116.406ZM92.9688 52H91.9688V51H92.9688V52ZM92.9688 84.8125V85.8125H91.9688V84.8125H92.9688ZM115.406 84.8125V77.0312H117.406V84.8125H115.406ZM116.406 78.0312H101.969V76.0312H116.406V78.0312ZM100.969 77.0312V72.0625H102.969V77.0312H100.969ZM101.969 71.0625H115.188V73.0625H101.969V71.0625ZM114.188 72.0625V65.0312H116.188V72.0625H114.188ZM115.188 66.0312H101.969V64.0312H115.188V66.0312ZM100.969 65.0312V59.875H102.969V65.0312H100.969ZM101.969 58.875H116.406V60.875H101.969V58.875ZM115.406 59.875V52H117.406V59.875H115.406ZM116.406 53H92.9688V51H116.406V53ZM93.9688 52V84.8125H91.9688V52H93.9688ZM92.9688 83.8125H116.406V85.8125H92.9688V83.8125ZM131.641 60.3906L132.482 60.9311L131.641 62.2407L130.799 60.9311L131.641 60.3906ZM126.25 52V51H126.796L127.091 51.4595L126.25 52ZM115.938 52L115.096 52.5408L114.106 51H115.938V52ZM126.484 68.4062L127.326 67.8655L127.673 68.4062L127.326 68.947L126.484 68.4062ZM115.938 84.8125V85.8125H114.106L115.096 84.2717L115.938 84.8125ZM126.25 84.8125L127.091 85.353L126.796 85.8125H126.25V84.8125ZM131.641 76.4219L130.799 75.8814L131.641 74.5718L132.482 75.8814L131.641 76.4219ZM137.031 84.8125V85.8125H136.485L136.19 85.353L137.031 84.8125ZM147.344 84.8125L148.185 84.2717L149.175 85.8125H147.344V84.8125ZM136.797 68.4062L135.956 68.947L135.608 68.4062L135.956 67.8655L136.797 68.4062ZM147.344 52V51H149.175L148.185 52.5408L147.344 52ZM137.031 52L136.19 51.4595L136.485 51H137.031V52ZM130.799 60.9311L125.409 52.5405L127.091 51.4595L132.482 59.8501L130.799 60.9311ZM126.25 53H115.938V51H126.25V53ZM116.779 51.4592L127.326 67.8655L125.643 68.947L115.096 52.5408L116.779 51.4592ZM127.326 68.947L116.779 85.3533L115.096 84.2717L125.643 67.8655L127.326 68.947ZM115.938 83.8125H126.25V85.8125H115.938V83.8125ZM125.409 84.272L130.799 75.8814L132.482 76.9624L127.091 85.353L125.409 84.272ZM132.482 75.8814L137.873 84.272L136.19 85.353L130.799 76.9624L132.482 75.8814ZM137.031 83.8125H147.344V85.8125H137.031V83.8125ZM146.503 85.3533L135.956 68.947L137.638 67.8655L148.185 84.2717L146.503 85.3533ZM135.956 67.8655L146.503 51.4592L148.185 52.5408L137.638 68.947L135.956 67.8655ZM147.344 53H137.031V51H147.344V53ZM137.873 52.5405L132.482 60.9311L130.799 59.8501L136.19 51.4595L137.873 52.5405Z" fill="#F8F8F8" mask="url(#path-2-outside-1_38_11)"/>
</svg>
