<?xml version="1.0" encoding="UTF-8"?>
<svg id="Capa_2" data-name="Capa 2" xmlns="http://www.w3.org/2000/svg" viewBox="0 0 43.31 43.28">
  <defs>
    <style>
      .cls-1 {
        fill: #8944df;
      }
    </style>
  </defs>
  <g id="Capa_1-2" data-name="Capa 1">
    <g>
      <path class="cls-1" d="m0,21.95C-.13,9.89,9.42.15,21.51,0c11.81-.15,21.68,9.6,21.79,21.51.11,11.94-9.55,21.66-21.65,21.77C9.86,43.39.13,33.81,0,21.95Zm41.62-.37c-.06-11.11-9-19.95-20.1-19.9C10.6,1.74,1.66,10.69,1.69,21.52c.03,11.36,9.06,20.35,20.54,20.09,10.02-.22,19.38-8.43,19.39-20.03Z"/>
      <path class="cls-1" d="m21.45,24.67c2.33.06,4.38.14,6.35.74,3.31,1,5.58,3.19,7.01,6.29.66,1.43.63,1.53-.48,2.66-2.71,2.73-6.02,4.27-9.78,4.91-1.88.32-3.76.47-5.66.22-3.28-.44-6.11-1.86-8.63-3.95-.66-.55-1.25-1.17-1.88-1.76-.41-.38-.48-.81-.26-1.32,1.87-4.38,5.07-7.04,9.89-7.55,1.24-.13,2.49-.17,3.45-.23Z"/>
      <path class="cls-1" d="m21.71,7.35c4.23,0,7.76,3.53,7.75,7.74-.01,4.39-3.47,7.9-7.8,7.9-4.44,0-7.82-3.4-7.82-7.88,0-4.31,3.49-7.76,7.87-7.76Z"/>
    </g>
  </g>
</svg>