<?xml version="1.0" encoding="UTF-8"?>
<svg id="Capa_2" data-name="Capa 2" xmlns="http://www.w3.org/2000/svg" viewBox="0 0 37.73 37.71">
  <defs>
    <style>
      .cls-1 {
        fill: #e8deff;
      }
    </style>
  </defs>
  <g id="Capa_1-2" data-name="Capa 1">
    <g>
      <path class="cls-1" d="m0,19.13C-.11,8.62,8.2.13,18.74,0c10.29-.13,18.89,8.37,18.99,18.74.1,10.4-8.32,18.87-18.87,18.97C8.59,37.81.11,29.45,0,19.13Zm36.26-.32c-.06-9.68-7.84-17.38-17.52-17.34C9.23,1.51,1.45,9.31,1.47,18.75c.02,9.9,7.89,17.73,17.9,17.51,8.73-.19,16.88-7.34,16.89-17.45Z"/>
      <path class="cls-1" d="m18.69,21.49c2.03.05,3.81.12,5.53.64,2.88.87,4.86,2.78,6.11,5.48.58,1.24.55,1.34-.42,2.32-2.36,2.38-5.24,3.72-8.52,4.28-1.64.28-3.28.41-4.93.19-2.85-.38-5.32-1.62-7.52-3.44-.57-.48-1.09-1.02-1.64-1.53-.35-.33-.42-.71-.23-1.15,1.63-3.82,4.42-6.13,8.61-6.58,1.08-.11,2.17-.15,3-.2Z"/>
      <path class="cls-1" d="m18.92,6.41c3.69,0,6.76,3.07,6.76,6.74,0,3.83-3.02,6.88-6.8,6.88-3.87,0-6.81-2.96-6.82-6.87,0-3.76,3.04-6.76,6.86-6.76Z"/>
    </g>
  </g>
</svg>