<?xml version="1.0" encoding="UTF-8"?>
<svg id="Capa_2" data-name="Capa 2" xmlns="http://www.w3.org/2000/svg" viewBox="0 0 24.14 24.21">
  <defs>
    <style>
      .cls-1 {
        fill: #8944df;
      }
    </style>
  </defs>
  <g id="Capa_1-2" data-name="Capa 1">
    <g>
      <path class="cls-1" d="m16.14,6.54c-.55,0-.92.36-.92.9,0,.55.36.91.91.91.51,0,.9-.37.91-.86.01-.5-.42-.95-.9-.95Z"/>
      <path class="cls-1" d="m12.07,0C5.4,0,0,5.42,0,12.11s5.4,12.11,12.07,12.11,12.07-5.42,12.07-12.11S18.74,0,12.07,0Zm6.27,15.4c-.16,1.75-1.06,2.71-2.81,2.85-2.53.2-5.07.22-7.6-.03-1.49-.15-2.46-1.2-2.56-2.71-.16-2.44-.23-4.89-.02-7.33.15-1.82,1.27-2.89,3.1-2.96,1.12-.04,2.25,0,3.37,0h0c1.08,0,2.17-.04,3.25,0,2.1.07,3.14,1.1,3.28,3.21.15,2.33.19,4.66-.01,6.98Z"/>
      <path class="cls-1" d="m11.9,7.64c-2.39,0-4.1,1.72-4.15,4.09-.05,2.73,1.96,4.14,4.03,4.17,2.34.04,4.15-1.82,4.15-4.17,0-2.31-1.75-4.09-4.03-4.09Zm-.1,6.77c-1.47,0-2.64-1.22-2.61-2.71.03-1.45,1.2-2.6,2.66-2.61,1.45,0,2.64,1.17,2.65,2.62,0,1.51-1.19,2.7-2.7,2.69Z"/>
    </g>
  </g>
</svg>