<?xml version="1.0" encoding="UTF-8"?>
<svg id="Capa_2" data-name="Capa 2" xmlns="http://www.w3.org/2000/svg" viewBox="0 0 24.1 24.1">
  <defs>
    <style>
      .cls-1 {
        fill: #8944df;
      }
    </style>
  </defs>
  <g id="Capa_1-2" data-name="Capa 1">
    <path class="cls-1" d="m12.05,0C5.4,0,0,5.4,0,12.05s5.4,12.05,12.05,12.05,12.05-5.4,12.05-12.05S18.71,0,12.05,0Zm-3.09,17.44h-2.56v-8.27h2.56v8.27Zm-1.23-9.4c-.83,0-1.5-.67-1.5-1.5s.67-1.5,1.5-1.5,1.5.67,1.5,1.5-.67,1.5-1.5,1.5Zm10.82,9.4h-2.53v-4.04c0-.96-.04-2.19-1.36-2.19s-1.61,1.04-1.61,2.12v4.11h-2.49v-8.27h2.49v1.13h0c.34-.65,1.18-1.27,2.42-1.27,2.59,0,3.06,1.64,3.06,3.86v4.54Z"/>
  </g>
</svg>