<?xml version="1.0" encoding="UTF-8"?>
<svg id="Capa_2" data-name="Capa 2" xmlns="http://www.w3.org/2000/svg" viewBox="0 0 24.2 24.2">
  <defs>
    <style>
      .cls-1 {
        fill: #8944df;
      }
    </style>
  </defs>
  <g id="Capa_1-2" data-name="Capa 1">
    <g>
      <polygon class="cls-1" points="10.03 12.41 6.17 15.31 6.17 9.53 10.03 12.41"/>
      <path class="cls-1" d="m18.24,16.76c0,.06-.1.12-.2.13H6.5c-.1,0-.17-.01-.23-.03-.06-.03-.1-.06-.11-.1,0-.04.03-.09.09-.13l4.63-3.48s.04-.03.06-.04c.02.01.04.03.06.04.42.33.89.48,1.41.43.34-.03.66-.17.97-.41.02-.01.06-.04.08-.06.02.01.05.03.08.06l4.59,3.44c.13.09.13.12.11.17Z"/>
      <polygon class="cls-1" points="14.38 12.42 18.24 9.52 18.24 15.3 14.38 12.42"/>
      <path class="cls-1" d="m18.25,8.08s-.02.08-.08.12c-.26.2-.52.4-.79.59l-4.87,3.64c-.24.18-.38.18-.61,0l-5.64-4.23c-.1-.08-.1-.1-.1-.13,0-.02.01-.08.13-.12.06-.01.12-.03.18-.03h6.75c1.56,0,3.13,0,4.69,0,.1,0,.19.01.25.04.06.03.1.06.1.1Z"/>
      <path class="cls-1" d="m12.1,0C5.41,0,0,5.41,0,12.1s5.41,12.1,12.1,12.1,12.1-5.42,12.1-12.1S18.78,0,12.1,0Zm6.39,17.83c-.17.04-.33.07-.5.07H6.45c-.42,0-.77-.1-1.07-.33-.31-.22-.47-.54-.47-.92v-8.45c0-.47.2-.82.61-1.05.28-.16.61-.24.99-.24h11.42c.38,0,.71.09,1.01.27.36.22.54.56.54.99v5.29c0,1-.01,2.04,0,3.06.01.66-.35,1.12-1.01,1.3Z"/>
    </g>
  </g>
</svg>